<svg xmlns="http://www.w3.org/2000/svg" viewBox="150 240 910 140">
        <g fill-rule="evenodd" stroke-linejoin="miter" stroke-miterlimit="10">
            <path d="M163.211594,259.202240 C177.680054,245.405746 208.871841,245.438049 222.319901,260.639404 C227.666229,266.682800 230.140427,273.613281 230.790146,281.726379 C223.957047,281.726379 217.195236,281.726379 210.434586,281.726379 C206.920593,267.795685 191.728745,261.849304 179.335037,269.535461 C171.148209,274.612701 171.569290,287.395142 180.470001,292.292725 C185.062164,294.819580 190.317154,296.176788 195.330475,297.893616 C200.510529,299.667572 205.835739,301.034241 210.965179,302.935883 C223.262726,307.495026 231.031616,315.743866 231.544922,329.472687 C232.030838,342.469025 226.455856,352.222534 215.422882,358.935242 C198.009003,369.530182 171.043976,365.315613 159.416138,350.175598 C154.881729,344.271606 152.968369,337.548553 153.227264,329.799347 C159.785751,329.799347 166.194183,329.799347 172.711670,329.799347 C172.874176,330.161652 173.146820,330.587830 173.262161,331.053009 C176.790421,345.281799 189.451721,351.575134 203.139145,345.749237 C208.663452,343.397858 211.614807,339.039856 212.070206,332.992096 C212.527679,326.916687 209.894226,322.295746 204.459854,320.227264 C195.171829,316.691925 185.604462,313.886230 176.138168,310.824341 C152.726044,303.251648 146.092422,277.425995 163.211594,259.202240 z"/>
            <path d="M289.222534,306.000549 C289.222473,325.287170 289.222473,344.073730 289.222473,363.200623 C282.717438,363.200623 276.518219,363.200623 270.002472,363.200623 C270.002472,331.258942 270.002472,299.502533 270.002472,267.313995 C260.136993,267.313995 250.569122,267.313995 240.660263,267.313995 C240.660263,261.668884 240.660263,256.445587 240.660263,250.835968 C266.447571,250.835968 292.309296,250.835968 318.483276,250.835968 C318.483276,256.149323 318.483276,261.393860 318.483276,267.188904 C308.974182,267.188904 299.408691,267.188904 289.222626,267.188904 C289.222626,280.315704 289.222626,292.908142 289.222534,306.000549 z"/>
            <path d="M352.815735,360.247803 C338.093781,352.795807 331.362030,340.505615 331.078857,324.957275 C330.630402,300.333740 330.959351,275.696106 330.959351,250.766296 C337.236725,250.766296 343.321747,250.766296 350.037964,250.766296 C350.037964,252.567520 350.037964,254.325684 350.037964,256.083862 C350.037994,276.569366 350.037506,297.054871 350.039124,317.540375 C350.039246,319.039215 350.046967,320.538177 350.063782,322.036926 C350.330872,345.813385 367.249756,349.962555 384.142792,345.547058 C391.265961,343.685211 395.357819,337.921875 396.830536,330.769135 C397.629211,326.889984 397.892426,322.843628 397.911621,318.870361 C398.012817,297.885681 397.959534,276.900269 397.959778,255.915115 C397.959808,254.273346 397.959808,252.631592 397.959808,250.729340 C404.395599,250.729340 410.489014,250.729340 416.827393,250.729340 C416.951843,251.620621 417.155731,252.401459 417.156128,253.182404 C417.167603,275.999512 417.192719,298.816711 417.145508,321.633728 C417.069336,358.456573 386.261322,368.732330 362.612335,363.481598 C359.392365,362.766693 356.307739,361.442200 352.815735,360.247803 z"/>
            <path d="M435.570129,277.999695 C435.570068,268.707367 435.570068,259.915039 435.570068,250.461975 C439.201050,250.461975 442.471344,250.369385 445.734924,250.478134 C459.352722,250.931931 473.071350,250.562378 486.562561,252.131714 C510.842224,254.955963 528.543335,273.874847 531.032898,298.214752 C532.879211,316.265289 530.132080,333.069794 517.082764,346.855957 C507.982849,356.469696 496.457794,361.871216 483.574402,362.649414 C467.852203,363.599121 452.028992,362.875397 435.570221,362.875397 C435.570221,334.960449 435.570221,306.730072 435.570129,277.999695 M465.459961,346.827484 C470.283295,346.621094 475.284576,347.147034 479.886292,346.028717 C486.072296,344.525360 492.816010,342.938965 497.796661,339.301758 C512.492310,328.569977 513.459412,312.772736 510.844635,296.501923 C508.859436,284.148926 502.028351,275.010864 490.089508,270.524872 C478.800812,266.283173 466.977814,267.073029 455.260254,267.323944 C455.260254,294.039612 455.260254,320.269531 455.260254,346.827454 C458.551575,346.827454 461.521851,346.827454 465.459961,346.827484 z"/>
            <path d="M545.023132,329.000000 C545.023132,302.683929 545.023132,276.867859 545.023132,250.758942 C551.399841,250.758942 557.510925,250.758942 563.976562,250.758942 C563.976562,288.104919 563.976562,325.499176 563.976562,363.214691 C557.881287,363.214691 551.807861,363.214691 545.023132,363.214691 C545.023132,351.985535 545.023132,340.742767 545.023132,329.000000 z"/>
            <path d="M594.413208,265.411255 C617.556152,243.275940 653.545105,244.418228 674.256348,265.007446 C692.135620,282.781403 695.465942,304.673401 687.713684,327.793060 C680.495728,349.319458 664.185425,361.318268 641.824158,364.080353 C617.379944,367.099670 595.272217,355.635986 584.790894,335.593994 C573.335266,313.688995 576.015747,287.062286 591.533325,268.665741 C592.391785,267.648041 593.282837,266.657837 594.413208,265.411255 M665.840149,283.779572 C657.443237,270.168610 644.705750,265.519775 629.547913,267.129242 C615.688049,268.600922 605.926331,276.206360 600.659180,289.239380 C597.334961,297.464905 596.936890,306.034912 598.003723,314.736115 C599.831055,329.641693 610.052490,341.892761 623.905701,345.792999 C638.334351,349.855225 654.754517,345.280060 663.049866,333.849976 C674.380798,318.236969 674.389648,301.496765 665.840149,283.779572 z"/>
            
            <path d="M 744,372 L 744,250 L 762,250 L 799.5,332.43 L 799.5,250 L 817.5,250 L 855,332.43 L 855,250 L 873,250 L 873,372 L 855,372 L 817.5,289.57 L 817.5,372 L 799.5,372 L 762,289.57 L 762,372 Z"/>
            
            <path d="M 902,372 L 902,250 L 920,250 L 920,372 Z"/>
            <path d="M 946,372 L 990.5,250 L 1008.5,250 L 1053,372 L 1033,372 L 999.5,280.1 L 966,372 Z"/>
        </g>
    </svg>